<svg xmlns="http://www.w3.org/2000/svg" height="20" width="20"><path d="m10 15.062-3.417 2.042q-.229.125-.448.104-.218-.02-.385-.146-.167-.124-.25-.343-.083-.219-.021-.448l.896-3.813-3.021-2.562q-.187-.167-.229-.386-.042-.218.021-.427.062-.208.229-.343.167-.136.417-.157l3.958-.354 1.562-3.625q.105-.229.292-.344.188-.114.396-.114.208 0 .396.114.187.115.292.344L12.25 8.25l3.958.333q.25.021.417.167.167.146.229.354.063.208.011.417-.053.208-.24.375l-3 2.562.896 3.813q.062.229-.021.448t-.25.343q-.167.126-.385.146-.219.021-.448-.104Z"/></svg>